<svg width="20" height="21" viewBox="0 0 20 21" fill="none" xmlns="http://www.w3.org/2000/svg">
<path d="M0.179199 11.5002V9.33633C0.206897 9.19525 0.237191 9.05503 0.262291 8.91395C0.826625 5.69067 2.55598 3.30437 5.42525 1.74293C6.48987 1.16388 7.65056 0.88258 8.83463 0.680908C9.55562 0.680908 10.2775 0.680908 10.9985 0.680908C11.0963 0.702547 11.1932 0.730244 11.2928 0.745824C14.2503 1.21668 16.5457 2.70628 18.1773 5.21722C18.9935 6.47398 19.4193 7.87097 19.6539 9.33633V11.5002C19.6262 11.6413 19.5968 11.7815 19.5708 11.9226C18.9753 15.222 17.1958 17.6464 14.2105 19.1845C13.1978 19.7064 12.109 19.9652 10.9985 20.1556H8.83463C8.70826 20.1297 8.58189 20.1011 8.45465 20.0794C5.3361 19.5437 2.97404 17.9165 1.38577 15.1753C0.725357 14.0354 0.387795 12.789 0.179199 11.5002ZM11.0019 8.48551C11.0019 8.48551 10.9959 8.48551 10.9933 8.48551C10.9933 7.86578 11.0071 7.24518 10.9898 6.62545C10.9717 5.98842 10.5328 5.56603 9.92088 5.55911C9.29163 5.55305 8.84328 5.95033 8.83549 6.59862C8.81731 8.21373 8.82857 9.82883 8.83116 11.4439C8.83116 11.8187 8.99215 12.132 9.31673 12.3095C10.4168 12.9119 11.5195 13.51 12.6396 14.0752C13.126 14.321 13.6332 14.1401 13.9327 13.7039C14.3455 13.104 14.1768 12.4419 13.4947 12.0654C12.7876 11.675 12.0726 11.2994 11.3551 10.9298C11.1058 10.8017 10.9976 10.6199 11.0002 10.3447C11.0071 9.72496 11.0019 9.10437 11.0019 8.48464V8.48551Z" fill="#E6CFB8"/>
</svg>
